<?xml version="1.0" standalone="no"?>
<!DOCTYPE svg PUBLIC "-//W3C//DTD SVG 20010904//EN"
 "http://www.w3.org/TR/2001/REC-SVG-20010904/DTD/svg10.dtd">
<svg version="1.0" xmlns="http://www.w3.org/2000/svg"
 width="512.000000pt" height="512.000000pt" viewBox="0 0 512.000000 512.000000"
 preserveAspectRatio="xMidYMid meet">
<metadata>
Created by potrace 1.16, written by Peter Selinger 2001-2019
</metadata>
<g transform="translate(0.000000,512.000000) scale(0.100000,-0.100000)"
fill="#000000" stroke="none">
<path d="M2844 4103 c-43 -47 -94 -161 -94 -212 0 -56 15 -80 98 -156 35 -32
70 -72 79 -88 23 -45 12 -102 -36 -183 -24 -41 -41 -84 -41 -102 0 -42 43 -92
79 -92 51 0 56 11 131 308 14 55 -6 96 -84 181 -90 95 -102 133 -85 261 15
113 2 136 -47 83z"/>
<path d="M4950 3967 c-81 -22 -356 -185 -761 -449 l-147 -96 -43 30 c-192 129
-292 135 -417 23 -28 -26 -59 -67 -76 -103 -27 -57 -30 -60 -50 -47 -34 22
-87 27 -161 15 -106 -17 -202 -51 -244 -87 -40 -34 -76 -104 -87 -169 -6 -38
-7 -39 -51 -41 -52 -2 -133 -38 -181 -79 -35 -30 -51 -78 -52 -156 0 -21 -1
-38 -2 -38 -2 0 -24 11 -50 24 -64 33 -172 49 -282 44 -109 -6 -185 -31 -274
-91 -50 -33 -68 -53 -90 -97 -26 -53 -27 -61 -27 -217 0 -96 -4 -162 -9 -160
-5 2 -19 33 -32 69 -48 142 -73 168 -166 168 -97 -1 -160 -42 -265 -177 l-66
-84 -41 7 c-66 11 -165 6 -218 -12 -32 -10 -71 -37 -117 -79 -55 -50 -82 -67
-137 -85 -203 -67 -252 -134 -299 -403 -9 -56 -23 -98 -37 -118 -30 -40 -133
-124 -298 -242 -190 -136 -270 -217 -270 -273 0 -28 30 -54 62 -54 96 0 647
259 730 344 32 32 47 40 87 44 45 4 50 2 84 -33 21 -21 37 -42 37 -46 0 -14
35 -19 68 -9 47 13 74 -1 122 -62 58 -73 88 -88 181 -88 117 0 223 37 298 105
69 62 113 195 127 383 l7 91 86 26 c108 34 208 79 240 108 33 31 51 78 51 136
0 62 -9 59 200 64 183 5 232 18 295 82 45 44 70 103 81 188 6 39 10 47 23 43
9 -3 76 -26 149 -51 73 -26 157 -49 187 -52 74 -8 90 7 105 98 23 136 60 143
279 54 168 -68 197 -69 225 -11 12 25 20 69 24 127 2 49 10 93 16 98 6 5 65
11 131 13 158 6 216 27 301 112 71 72 94 126 94 225 0 37 -8 97 -19 134 -13
48 -15 69 -7 76 6 5 114 70 239 145 276 165 351 215 465 311 116 97 147 141
147 211 0 46 -4 58 -30 83 -37 36 -76 44 -135 28z m-1090 -564 l55 -28 12 -76
c13 -90 35 -137 66 -144 12 -3 51 -4 85 -2 55 2 66 -1 81 -20 27 -33 34 -108
16 -178 -28 -108 -49 -125 -185 -154 -121 -27 -128 -26 -88 6 61 49 128 117
128 130 0 29 -47 9 -161 -68 -96 -65 -124 -80 -144 -75 -36 9 -32 45 8 82 17
17 59 51 92 76 74 57 141 125 132 135 -11 10 -92 -32 -180 -94 -84 -59 -110
-63 -115 -21 -5 43 24 75 122 132 101 60 129 86 124 113 -6 32 -42 25 -123
-25 -78 -47 -134 -72 -161 -72 -20 0 -54 41 -54 66 0 26 39 59 118 98 38 19
52 32 50 44 -3 14 -13 16 -61 14 -69 -4 -72 5 -17 61 39 39 42 40 92 34 29 -4
77 -19 108 -34z m-405 -224 c67 -61 86 -111 96 -242 7 -109 9 -115 60 -213 47
-93 51 -106 46 -148 -10 -72 -21 -86 -68 -86 -60 0 -159 37 -201 76 -43 38
-54 40 -105 19 -44 -19 -73 -19 -73 -2 0 8 9 56 20 108 29 139 28 147 -32 226
-74 99 -93 155 -68 203 26 48 142 99 228 100 48 0 56 -4 97 -41z m-361 -300
c14 -7 33 -28 42 -47 15 -32 15 -40 1 -86 -8 -28 -25 -75 -38 -104 -21 -47
-22 -56 -10 -85 31 -74 29 -79 -43 -114 -69 -34 -123 -42 -144 -21 -20 20 -15
28 55 93 50 47 65 66 59 80 -9 26 -75 13 -155 -31 -63 -35 -91 -38 -91 -10 0
12 135 119 214 169 20 13 26 21 18 29 -13 13 -86 -4 -143 -32 -45 -24 -79 -26
-79 -5 0 17 70 87 123 123 l38 25 22 -21 c27 -26 57 -29 57 -6 0 24 19 54 35
54 8 0 25 -5 39 -11z m-576 -165 c62 -30 95 -73 122 -163 26 -83 27 -210 1
-266 -45 -99 -130 -159 -225 -159 -78 0 -201 13 -244 26 -47 14 -99 63 -113
106 -32 97 1 281 66 366 89 118 257 156 393 90z m-699 -335 c20 -19 21 -26 15
-90 -5 -48 -3 -73 6 -83 6 -9 54 -32 106 -52 126 -48 136 -58 142 -125 4 -52
2 -57 -28 -87 -33 -33 -88 -67 -96 -59 -3 2 7 18 21 35 30 35 34 68 8 57 -10
-3 -48 -27 -85 -52 -52 -35 -79 -47 -117 -51 -42 -4 -51 -2 -51 11 0 16 13 27
109 99 56 42 84 79 75 101 -10 27 -38 20 -101 -27 -103 -77 -183 -109 -183
-72 0 23 48 74 95 101 23 14 50 34 60 45 16 18 16 20 1 26 -21 8 -67 -8 -127
-46 -55 -33 -69 -37 -69 -16 0 15 115 126 131 126 5 0 9 7 9 16 0 18 -18 14
-99 -22 -58 -26 -101 -31 -101 -11 1 17 58 90 96 121 46 38 116 76 140 76 11
0 30 -9 43 -21z m-475 -213 c63 -26 305 -329 327 -408 30 -115 -51 -389 -135
-453 -73 -55 -153 -43 -277 41 -111 76 -138 86 -254 94 -107 7 -167 30 -234
86 -51 43 -61 72 -61 182 0 85 3 105 25 149 31 62 46 72 174 122 59 23 135 62
186 97 155 107 184 117 249 90z"/>
<path d="M3443 3938 c-14 -26 -18 -57 -17 -153 0 -128 17 -195 49 -195 21 0
38 48 30 85 -3 17 0 78 6 137 9 81 10 114 1 133 -16 35 -48 32 -69 -7z"/>
<path d="M2310 3825 c-9 -11 -11 -37 -6 -93 4 -42 9 -111 12 -152 l5 -75 -47
-79 c-66 -110 -70 -159 -20 -261 54 -110 129 -164 166 -120 16 20 8 48 -36
120 -41 68 -53 129 -34 177 8 18 34 68 58 111 44 77 44 80 40 151 -5 77 -40
171 -80 213 -25 27 -41 29 -58 8z"/>
<path d="M1764 3528 c-24 -38 -98 -199 -114 -249 -11 -32 -20 -76 -20 -99 0
-48 29 -129 63 -173 76 -100 75 -162 -3 -283 -18 -27 -18 -32 -5 -52 9 -12 31
-24 51 -28 29 -5 40 -2 61 17 36 34 49 64 68 154 21 101 14 133 -37 192 -89
103 -95 157 -31 298 45 99 52 158 24 203 -21 33 -44 41 -57 20z"/>
<path d="M1010 3415 c-34 -41 -11 -225 51 -406 16 -48 29 -99 29 -114 0 -41
-32 -78 -126 -145 -91 -66 -114 -98 -114 -157 0 -69 98 -235 164 -279 30 -19
63 -5 72 31 8 34 -1 55 -56 132 -28 37 -50 74 -50 81 0 35 39 88 102 138 86
69 95 83 108 171 14 89 -3 201 -55 361 -33 102 -84 202 -104 202 -5 0 -14 -7
-21 -15z"/>
</g>
</svg>
