<?xml version="1.0" standalone="no"?>
<!DOCTYPE svg PUBLIC "-//W3C//DTD SVG 20010904//EN"
 "http://www.w3.org/TR/2001/REC-SVG-20010904/DTD/svg10.dtd">
<svg version="1.0" xmlns="http://www.w3.org/2000/svg"
 width="242.000000pt" height="280.000000pt" viewBox="0 0 242.000000 280.000000"
 preserveAspectRatio="xMidYMid meet">

<g transform="translate(0.000000,280.000000) scale(0.100000,-0.100000)"
fill="#000000" stroke="none">
<path d="M545 2341 c-106 -9 -175 -38 -205 -87 -26 -41 -25 -69 5 -200 14 -60
62 -271 105 -469 250 -1132 327 -1464 345 -1492 9 -14 32 -25 66 -32 49 -11
56 -10 116 19 62 30 87 56 164 171 34 51 174 252 273 394 47 66 115 163 151
216 36 53 74 105 83 115 10 10 51 66 91 124 41 58 77 107 80 110 4 3 63 84
131 180 68 96 151 213 185 260 81 111 125 195 125 241 0 30 -7 43 -41 73 -22
20 -52 42 -67 49 -15 6 -58 32 -97 58 -98 65 -149 85 -288 114 -67 14 -140 31
-162 39 -22 8 -76 22 -120 31 -44 10 -125 28 -180 41 -161 38 -550 61 -760 45z
m379 -21 c13 -5 85 -14 159 -19 75 -6 186 -22 247 -36 62 -14 122 -25 134 -25
11 0 53 -12 91 -25 39 -14 135 -39 215 -56 130 -27 153 -35 218 -77 41 -26 83
-52 94 -58 11 -7 45 -33 75 -59 41 -36 51 -50 41 -56 -23 -15 -34 -10 -65 35
-21 29 -49 53 -82 69 -27 13 -48 20 -45 15 9 -14 -21 -9 -42 8 -18 15 -18 15
4 9 28 -8 29 1 1 16 -13 7 -24 7 -28 2 -3 -6 -27 -7 -56 -3 l-50 7 50 3 c38 3
28 5 -40 9 -92 6 -99 9 -250 89 -22 12 -60 16 -150 17 -103 0 -126 3 -160 22
-46 24 -154 57 -162 50 -3 -3 11 -9 31 -12 19 -4 40 -13 47 -21 15 -18 1 -18
-44 1 -20 8 -67 16 -104 16 l-68 2 60 12 c106 22 9 17 -118 -7 -70 -13 -112
-25 -105 -30 7 -4 9 -8 3 -8 -5 0 -21 -3 -35 -5 -22 -5 -22 -4 -5 4 15 7 5 10
-41 10 -34 1 -76 4 -94 8 -19 3 -31 2 -28 -3 4 -5 -16 -9 -42 -9 -27 0 -43 3
-37 7 9 6 8 8 -1 8 -24 0 -69 -29 -86 -56 l-18 -26 -29 28 c-41 39 -45 61 -18
90 28 30 72 44 163 54 106 11 341 11 370 0z m-59 -123 c-61 -35 -98 -94 -99
-161 0 -31 -3 -56 -7 -56 -15 0 -31 62 -25 96 9 45 77 121 120 133 51 15 53
12 11 -12z m218 2 c12 -6 30 -18 39 -27 16 -14 15 -16 -20 -42 -52 -38 -65
-56 -69 -98 -2 -20 -11 -43 -20 -49 -9 -7 -12 -13 -6 -13 6 0 16 -13 22 -30
l10 -30 -43 0 c-53 0 -61 7 -39 34 18 21 18 21 -3 4 -25 -21 -44 -23 -44 -4 0
18 25 38 35 28 5 -4 5 -1 1 6 -4 7 -1 15 8 18 25 9 19 35 -16 71 -42 44 -29
53 20 14 22 -17 46 -31 53 -30 10 0 10 2 -1 7 -9 4 -32 20 -53 36 -66 51 -85
15 -23 -43 l25 -24 -29 -34 c-17 -18 -30 -40 -30 -48 0 -18 -7 -18 -51 -4 -47
16 -59 35 -59 94 0 68 29 110 99 147 58 31 152 39 194 17z m47 1 c0 -5 -4 -10
-9 -10 -6 0 -13 5 -16 10 -3 6 1 10 9 10 9 0 16 -4 16 -10z m140 0 c12 -8 12
-10 -5 -10 -11 0 -27 5 -35 10 -12 8 -12 10 5 10 11 0 27 -5 35 -10z m-689
-25 c-16 -14 -33 -35 -36 -45 -6 -19 -35 -29 -35 -12 0 12 30 45 60 65 38 26
45 20 11 -8z m172 17 c15 -7 15 -11 -10 -47 -16 -24 -28 -57 -31 -87 -2 -26
-8 -48 -12 -48 -5 0 -6 9 -3 20 3 12 -2 29 -11 39 -9 10 -13 21 -9 26 5 4 2 5
-4 1 -7 -4 -13 -2 -13 3 0 13 21 14 36 4 5 -5 1 0 -9 9 -38 35 -52 -10 -16
-48 12 -12 18 -27 14 -33 -10 -18 -25 -13 -35 12 -5 12 -9 16 -9 9 -1 -19 -81
30 -81 50 0 26 48 77 83 87 38 11 85 12 110 3z m-274 -95 c78 -58 314 -177
350 -178 14 0 35 -4 46 -9 19 -8 19 -9 -1 -9 -70 -3 -334 105 -414 168 -57 44
-69 46 -22 2 59 -55 190 -124 286 -152 l79 -23 -70 -21 c-75 -23 -126 -54
-143 -86 -7 -13 -7 -52 0 -125 6 -58 11 -144 11 -192 1 -61 5 -92 15 -103 10
-11 23 -88 39 -235 14 -121 29 -239 35 -264 14 -60 52 -273 91 -500 32 -191
49 -244 49 -153 0 54 -45 336 -56 356 -4 7 5 1 19 -12 24 -22 40 -25 144 -32
120 -8 168 -20 177 -45 8 -20 -6 -25 -92 -33 -94 -10 -132 -30 -132 -72 0 -23
8 -33 40 -51 52 -30 56 -45 23 -80 -19 -20 -24 -31 -16 -39 26 -26 103 28 103
71 0 10 -19 32 -42 49 -57 42 -71 39 -22 -4 21 -19 34 -34 28 -35 -16 0 -67
57 -71 80 -4 27 22 39 120 55 128 21 167 44 138 79 -21 26 -144 56 -226 56
-77 0 -118 13 -145 45 -32 39 65 80 280 115 150 25 317 66 348 86 43 28 17 88
-49 113 -56 21 -236 34 -399 29 -176 -6 -207 -2 -224 25 -23 36 11 48 190 67
104 11 150 19 119 20 -47 2 -45 3 25 11 41 5 97 13 123 19 64 13 78 11 42 -6
l-30 -15 35 6 c19 3 73 12 119 20 46 8 105 15 130 15 101 0 215 56 204 100 -4
14 0 20 11 20 21 0 20 24 -1 46 -25 24 -70 41 -133 48 -111 13 -496 25 -602
19 -111 -6 -144 -18 -40 -15 41 2 53 0 42 -8 -19 -12 -218 -12 -245 1 -14 6
-1 8 42 4 38 -4 64 -2 68 5 4 6 -12 10 -44 10 -58 0 -150 18 -168 32 -20 16 1
43 44 56 21 7 103 17 182 23 79 5 149 13 155 17 6 3 139 9 295 12 214 4 285 8
289 18 5 15 29 16 34 0 3 -9 21 -9 76 0 93 16 152 36 214 74 55 34 73 65 58
103 -12 31 -20 33 -12 3 5 -22 5 -23 -19 -5 -27 19 -31 22 -74 38 -27 10 -28
12 -10 18 46 18 -88 20 -259 5 -204 -18 -375 -15 -602 13 -158 19 -223 12
-286 -30 -37 -25 -42 -44 -16 -61 14 -8 23 -5 46 17 27 26 33 27 123 27 51 0
130 -7 174 -14 140 -25 305 -29 495 -12 204 19 312 20 359 3 87 -30 29 -73
-149 -111 -91 -20 -161 -26 -435 -36 -295 -12 -493 -25 -605 -41 -47 -6 -87
-11 -90 -11 -3 1 -12 63 -22 139 -20 166 -19 169 79 208 101 41 191 53 473 66
220 11 289 10 500 -4 320 -22 508 -23 538 -1 26 18 28 7 7 -44 -17 -40 -73
-131 -91 -147 -6 -5 -44 -57 -85 -114 -41 -56 -109 -151 -151 -210 -42 -58
-105 -146 -139 -196 -34 -49 -71 -101 -84 -115 -12 -14 -52 -69 -89 -123 -37
-53 -73 -103 -80 -110 -6 -6 -42 -56 -80 -110 -37 -53 -73 -103 -80 -110 -7
-6 -39 -50 -71 -97 -32 -47 -79 -112 -104 -145 -26 -33 -62 -85 -82 -116 -47
-72 -113 -136 -156 -150 -41 -13 -95 -5 -116 19 -16 17 -75 269 -193 817 -35
165 -75 347 -89 405 -14 58 -54 247 -91 420 -36 173 -72 337 -80 364 -19 68
-18 71 17 44 17 -13 61 -45 98 -71z m1111 49 l25 -18 -25 7 c-14 5 -56 10 -95
12 -38 3 -74 9 -80 15 -7 7 16 9 70 6 58 -2 87 -8 105 -22z m-407 -11 c-73
-34 -108 -88 -108 -167 1 -63 -14 -73 -27 -20 -19 73 38 169 117 197 63 22 75
16 18 -10z m220 0 c55 -23 81 -68 85 -147 l4 -67 -195 0 -195 0 -6 31 c-9 44
9 100 42 131 61 59 189 84 265 52z m120 -22 c-7 -2 -19 -2 -25 0 -7 3 -2 5 12
5 14 0 19 -2 13 -5z m152 -3 c8 -13 -15 -13 -35 0 -12 8 -11 10 7 10 12 0 25
-4 28 -10z m20 -36 c55 -26 78 -58 83 -117 l4 -53 -48 6 c-66 7 -82 18 -97 70
-10 34 -18 45 -32 45 -17 0 -20 -7 -20 -50 l0 -50 -37 -3 c-37 -3 -38 -2 -32
25 3 16 -1 47 -9 70 l-14 42 31 15 c40 20 129 20 171 0z m120 -87 c20 -40 20
-87 0 -87 -10 0 -15 10 -15 33 0 17 -9 52 -21 76 l-20 45 21 -19 c11 -10 27
-32 35 -48z m-190 -4 c4 -21 14 -47 23 -57 16 -18 16 -19 -3 -11 -11 4 -27 7
-35 7 -10 0 -15 10 -16 33 0 22 3 32 10 28 6 -4 5 0 -1 9 -7 8 -10 18 -6 21
13 14 21 6 28 -30z m405 -30 c31 -35 38 -53 20 -53 -5 0 -10 4 -10 9 0 5 -17
27 -39 49 -26 27 -32 38 -20 35 11 -3 32 -21 49 -40z m-74 12 c24 -14 48 -34
54 -45 10 -18 7 -20 -25 -20 -25 0 -35 4 -35 15 0 24 -26 28 -55 9 -30 -20
-40 -13 -48 34 -6 31 -6 32 30 32 21 0 55 -11 79 -25z m-16 -55 c0 -5 -12 -10
-26 -10 -14 0 -23 4 -19 10 3 6 15 10 26 10 10 0 19 -4 19 -10z m-935 -182 c7
-7 -7 -9 -44 -5 -71 8 -85 23 -18 19 29 -2 57 -9 62 -14z m835 -8 c0 -5 -9
-10 -20 -10 -11 0 -20 5 -20 10 0 6 9 10 20 10 11 0 20 -4 20 -10z m-693 -6
c-3 -3 -12 -4 -19 -1 -8 3 -5 6 6 6 11 1 17 -2 13 -5z m-390 -21 c-9 -9 -20
-13 -24 -9 -4 4 -1 11 7 16 25 16 35 11 17 -7z m461 10 c-10 -2 -28 -2 -40 0
-13 2 -5 4 17 4 22 1 32 -1 23 -4z m411 3 c-2 -2 -80 -6 -174 -8 -93 -3 -143
-2 -110 2 64 7 291 12 284 6z m246 -146 c-3 -5 -16 -10 -28 -9 -21 0 -21 1 -2
9 28 12 37 12 30 0z m-595 -60 c-20 -13 -60 -13 -60 0 0 6 17 10 38 10 27 0
33 -3 22 -10z m300 0 c-20 -13 -183 -13 -175 0 3 6 47 10 98 10 63 0 87 -3 77
-10z m-635 -21 c-160 -12 -229 -24 -279 -50 l-41 -21 23 25 c21 22 55 36 127
51 11 2 81 4 155 3 l135 0 -120 -8z m181 -158 c-6 -9 69 -16 304 -26 151 -7
220 -20 254 -46 46 -36 9 -68 -104 -87 -155 -27 -515 -74 -659 -87 -152 -13
-156 -14 -182 -43 l-26 -29 -12 81 c-6 45 -16 114 -22 154 -6 41 -9 76 -6 78
3 3 29 -2 58 -10 35 -11 89 -16 163 -15 110 1 256 15 188 18 -44 1 -31 21 14
21 19 0 33 -4 30 -9z m554 -27 c55 -22 43 -30 -17 -11 -26 9 -59 18 -73 20
-18 3 -14 5 12 6 21 0 56 -6 78 -15z m-210 -174 c-14 -4 -32 -8 -40 -9 -13 -1
-13 0 0 9 8 5 26 9 40 9 l25 -1 -25 -8z m-695 -94 c-16 -13 -32 -22 -35 -19
-7 6 39 43 54 43 6 0 -2 -11 -19 -24z m42 -132 c20 -4 81 -4 137 -1 86 5 329
-10 441 -28 l30 -4 -27 15 c-31 16 -37 27 -10 17 30 -11 40 -23 35 -43 -9 -33
-154 -68 -392 -95 -158 -18 -203 -34 -243 -85 l-24 -31 -17 133 c-10 73 -21
146 -24 163 l-5 29 31 -32 c18 -18 47 -34 68 -38z m18 16 c8 -13 -15 -13 -35
0 -12 8 -11 10 7 10 12 0 25 -4 28 -10z m425 1 c44 -8 44 -8 -20 -9 -36 0
-108 4 -160 8 l-95 7 115 1 c63 0 135 -3 160 -7z m5 -141 c-3 -5 -13 -10 -21
-10 -8 0 -12 5 -9 10 3 6 13 10 21 10 8 0 12 -4 9 -10z m-138 -30 c-15 -5 -58
-11 -95 -15 -37 -4 -76 -9 -87 -11 -18 -5 -18 -4 -3 6 10 6 53 15 95 19 104
11 125 11 90 1z m-319 -140 c13 -17 17 -27 8 -24 -11 4 -41 54 -33 54 2 0 13
-13 25 -30z m342 -115 c7 -9 11 -17 8 -20 -2 -2 -12 4 -21 15 -9 11 -13 20 -8
20 5 0 14 -7 21 -15z"/>
<path d="M785 2290 c3 -5 8 -10 11 -10 2 0 4 5 4 10 0 6 -5 10 -11 10 -5 0 -7
-4 -4 -10z"/>
<path d="M500 2275 c0 -9 5 -15 11 -13 6 2 11 8 11 13 0 5 -5 11 -11 13 -6 2
-11 -4 -11 -13z"/>
<path d="M726 2271 c-4 -7 -5 -15 -2 -18 9 -9 19 4 14 18 -4 11 -6 11 -12 0z"/>
<path d="M1360 2230 c0 -5 5 -10 10 -10 6 0 10 5 10 10 0 6 -4 10 -10 10 -5 0
-10 -4 -10 -10z"/>
<path d="M452 1974 c4 -21 22 -23 26 -1 2 10 -3 17 -13 17 -10 0 -15 -6 -13
-16z"/>
<path d="M480 1880 c0 -5 5 -10 10 -10 6 0 10 5 10 10 0 6 -4 10 -10 10 -5 0
-10 -4 -10 -10z"/>
<path d="M1085 1863 c-82 -8 -318 -43 -323 -48 -8 -8 8 -6 146 11 87 10 128
12 130 5 5 -15 29 -14 34 2 5 14 191 15 703 5 171 -3 276 -4 235 -2 -41 2
-192 11 -336 19 -241 14 -492 17 -589 8z"/>
<path d="M2128 1843 c6 -2 18 -2 25 0 6 3 1 5 -13 5 -14 0 -19 -2 -12 -5z"/>
<path d="M1330 1830 c0 -5 4 -10 9 -10 6 0 13 5 16 10 3 6 -1 10 -9 10 -9 0
-16 -4 -16 -10z"/>
<path d="M1272 1818 c5 -15 28 -18 29 -3 0 6 -7 12 -17 13 -10 3 -15 -1 -12
-10z"/>
<path d="M1150 1806 c0 -10 9 -16 21 -16 24 0 21 23 -4 28 -10 2 -17 -3 -17
-12z"/>
<path d="M693 1790 c-18 -11 -33 -23 -33 -26 0 -4 6 -2 13 4 7 7 29 18 48 26
19 9 27 15 19 16 -8 0 -30 -9 -47 -20z"/>
<path d="M1770 1800 c0 -5 7 -10 15 -10 8 0 15 5 15 10 0 6 -7 10 -15 10 -8 0
-15 -4 -15 -10z"/>
<path d="M1220 1789 c0 -5 5 -7 10 -4 6 3 10 8 10 11 0 2 -4 4 -10 4 -5 0 -10
-5 -10 -11z"/>
<path d="M2066 1763 c-11 -11 -6 -23 9 -23 8 0 15 4 15 9 0 13 -16 22 -24 14z"/>
<path d="M1450 1651 c0 -6 5 -13 10 -16 6 -3 10 1 10 9 0 9 -4 16 -10 16 -5 0
-10 -4 -10 -9z"/>
<path d="M1680 1610 c0 -5 5 -10 10 -10 6 0 10 5 10 10 0 6 -4 10 -10 10 -5 0
-10 -4 -10 -10z"/>
<path d="M935 1560 c-11 -17 5 -32 21 -19 7 6 11 15 8 20 -7 12 -21 11 -29 -1z"/>
<path d="M1380 1440 c0 -5 5 -10 10 -10 6 0 10 5 10 10 0 6 -4 10 -10 10 -5 0
-10 -4 -10 -10z"/>
<path d="M1484 1419 c-10 -17 13 -36 27 -22 12 12 4 33 -11 33 -5 0 -12 -5
-16 -11z"/>
<path d="M1420 1395 c0 -8 7 -15 15 -15 8 0 15 7 15 15 0 8 -7 15 -15 15 -8 0
-15 -7 -15 -15z"/>
<path d="M560 1370 c0 -5 7 -10 15 -10 8 0 15 5 15 10 0 6 -7 10 -15 10 -8 0
-15 -4 -15 -10z"/>
<path d="M1198 1063 c6 -2 18 -2 25 0 6 3 1 5 -13 5 -14 0 -19 -2 -12 -5z"/>
<path d="M1522 1036 c1 -10 8 -17 13 -17 15 1 12 24 -3 29 -9 3 -13 -2 -10
-12z"/>
<path d="M1135 621 c-3 -5 -1 -12 5 -16 12 -7 30 2 30 16 0 12 -27 12 -35 0z"/>
<path d="M1180 570 c0 -5 5 -10 11 -10 5 0 7 5 4 10 -3 6 -8 10 -11 10 -2 0
-4 -4 -4 -10z"/>
<path d="M1263 2054 c-3 -9 2 -29 11 -46 26 -43 16 -59 -29 -47 -20 6 -43 8
-51 5 -16 -6 -19 -36 -4 -36 5 0 7 7 4 15 -7 18 13 20 50 5 35 -13 53 -4 58
30 2 16 1 27 -3 24 -11 -6 -31 34 -24 46 12 20 27 9 46 -36 24 -52 52 -70 89
-54 24 10 24 10 -5 5 -38 -6 -45 -1 -72 58 -24 49 -57 64 -70 31z"/>
<path d="M863 1233 c-21 -7 -15 -33 7 -33 11 0 20 6 20 14 0 18 -11 25 -27 19z"/>
<path d="M977 1194 c-11 -11 3 -24 24 -24 12 0 19 5 17 13 -5 14 -31 21 -41
11z"/>
<path d="M930 1170 c0 -5 5 -10 10 -10 6 0 10 5 10 10 0 6 -4 10 -10 10 -5 0
-10 -4 -10 -10z"/>
<path d="M1466 449 c-14 -11 -26 -27 -26 -34 0 -8 -5 -17 -12 -21 -7 -4 -8 -3
-4 4 4 7 5 12 2 12 -7 0 -36 -56 -36 -67 1 -4 7 3 15 17 19 33 19 21 0 -23
-31 -75 -12 -187 35 -202 11 -4 17 -11 14 -17 -5 -8 1 -9 17 -5 13 4 29 7 36
7 14 0 73 49 73 61 0 4 -16 -3 -36 -16 -45 -30 -65 -31 -89 -4 -40 44 -5 216
56 271 32 30 44 34 54 18 4 -6 11 -7 17 -4 8 5 9 1 5 -10 -4 -11 -3 -15 4 -10
8 4 9 -1 4 -17 -12 -39 -36 -81 -42 -75 -4 3 -15 -1 -25 -11 -15 -13 -18 -13
-18 -2 0 8 7 25 16 37 19 27 14 36 -14 28 -39 -13 -39 -69 -1 -81 71 -23 129
77 83 143 -21 30 -90 31 -128 1z"/>
<path d="M1568 395 c-3 -11 -9 -29 -13 -40 -3 -11 1 -7 10 8 9 16 15 33 12 40
-2 6 -6 3 -9 -8z"/>
<path d="M1625 330 c-9 -27 12 -60 38 -60 20 0 22 -5 22 -57 0 -56 1 -58 27
-60 16 -1 33 5 40 15 17 22 36 25 34 5 0 -9 6 -18 14 -20 13 -4 13 -3 0 6 -19
13 -14 14 28 2 27 -8 35 -6 52 11 18 20 19 19 14 -58 -4 -61 -3 -76 6 -64 10
12 11 11 7 -7 -5 -22 18 -52 30 -39 4 3 7 41 7 84 1 74 2 77 26 80 14 2 31 9
38 14 17 15 15 2 -4 -16 -8 -9 -11 -16 -5 -16 12 0 41 52 41 73 0 12 20 27 36
27 2 0 1 -14 -3 -30 -4 -23 -1 -35 13 -46 11 -9 12 -13 4 -9 -8 4 -6 -1 4 -9
11 -9 25 -16 30 -16 6 0 4 5 -4 11 -12 8 -9 10 13 6 22 -4 33 2 51 27 13 17
26 40 30 51 7 19 8 19 21 -5 17 -30 19 -50 5 -50 -5 0 -10 7 -10 15 0 18 -16
20 -26 3 -4 -6 3 -19 16 -30 12 -10 18 -18 13 -18 -5 0 -14 5 -21 12 -9 9 -12
9 -12 0 0 -16 50 -27 69 -15 24 15 25 40 1 94 -11 27 -18 53 -16 58 6 10 -30
22 -38 13 -3 -3 -6 -19 -6 -36 0 -44 -36 -95 -67 -96 -20 0 -15 28 7 40 12 7
17 16 13 27 -5 12 -3 14 7 8 8 -5 11 -4 6 3 -3 6 -2 13 4 17 16 10 -8 45 -30
45 -11 0 -20 -5 -20 -11 0 -5 -4 -8 -8 -5 -5 3 -19 -6 -30 -19 -28 -32 -40
-32 -48 0 -3 14 -10 22 -15 19 -5 -3 -9 -1 -9 4 0 16 -83 8 -91 -9 -5 -8 -17
-35 -28 -62 -21 -50 -45 -67 -64 -48 -9 9 -5 17 17 35 16 12 26 28 23 33 -4 6
-1 13 5 16 10 3 10 9 2 23 -12 21 -54 32 -54 14 0 -6 -5 -8 -10 -5 -6 4 -21
-18 -35 -48 -38 -86 -52 -86 -56 0 -2 48 -14 61 -35 40 -16 -16 -25 -5 -19 23
6 27 4 30 -19 30 -16 0 -27 -7 -31 -20z m241 -59 c-1 -16 -3 -27 -5 -25 -2 2
-10 -1 -17 -7 -11 -9 -11 -4 -4 23 6 18 10 34 10 35 0 2 4 3 9 3 4 0 8 -13 7
-29z m134 13 c0 -8 -4 -12 -10 -9 -5 3 -10 10 -10 16 0 5 5 9 10 9 6 0 10 -7
10 -16z m158 -14 c-11 -34 -28 -49 -28 -25 0 18 21 55 32 55 4 0 2 -14 -4 -30z
m-165 -39 c-8 -22 -24 -41 -34 -41 -10 0 -12 73 -3 83 11 10 42 -26 37 -42z
m-288 -61 c3 -5 1 -10 -4 -10 -6 0 -11 5 -11 10 0 6 2 10 4 10 3 0 8 -4 11
-10z m230 -158 c-3 -3 -11 0 -18 7 -9 10 -8 11 6 5 10 -3 15 -9 12 -12z"/>
<path d="M2258 312 c9 -11 21 -17 25 -15 11 7 -13 33 -29 33 -11 0 -10 -5 4
-18z"/>
<path d="M1372 275 c0 -16 2 -22 5 -12 2 9 2 23 0 30 -3 6 -5 -1 -5 -18z"/>
<path d="M1371 203 c-1 -23 43 -83 61 -83 6 0 -1 9 -16 21 -14 11 -30 35 -35
52 -7 24 -9 26 -10 10z"/>
</g>
</svg>
