<?xml version="1.0" standalone="no"?>
<!DOCTYPE svg PUBLIC "-//W3C//DTD SVG 20010904//EN"
 "http://www.w3.org/TR/2001/REC-SVG-20010904/DTD/svg10.dtd">
<svg version="1.0" xmlns="http://www.w3.org/2000/svg"
 width="305.000000pt" height="312.000000pt" viewBox="0 0 305.000000 312.000000"
 preserveAspectRatio="xMidYMid meet">

<g transform="translate(0.000000,312.000000) scale(0.100000,-0.100000)"
fill="#000000" stroke="none">
<path d="M2106 2988 c-14 -13 -138 -185 -276 -383 -138 -198 -261 -374 -274
-390 -20 -26 -35 -33 -117 -49 -213 -42 -241 -59 -272 -161 -8 -27 -24 -74
-36 -103 -36 -90 -25 -167 28 -193 14 -7 28 -14 30 -16 3 -2 -238 -351 -424
-613 -45 -63 -144 -205 -220 -315 -76 -110 -159 -229 -185 -265 -225 -314
-270 -390 -229 -390 6 0 109 75 228 167 119 92 350 271 515 398 164 126 317
244 341 262 l43 32 7 -36 c9 -50 45 -83 91 -83 65 0 133 58 183 157 17 35 27
43 58 49 34 6 39 4 66 -30 17 -21 74 -73 128 -117 54 -43 125 -112 158 -153
33 -41 104 -115 157 -165 l97 -90 -27 -35 c-31 -42 -33 -62 -6 -76 17 -9 25
-5 55 27 l35 38 27 -28 28 -28 -37 -31 c-43 -34 -51 -73 -18 -83 16 -5 37 8
88 53 145 129 321 324 394 437 70 107 82 203 28 223 -18 7 -73 93 -433 681
l-52 84 35 26 c18 14 95 73 170 131 75 58 195 150 267 205 166 127 186 158
146 226 -20 34 -76 55 -110 42 -11 -4 -150 -117 -308 -251 -157 -134 -293
-246 -300 -249 -15 -5 -95 35 -332 170 -79 44 -143 85 -143 90 0 6 11 24 24
41 340 438 525 685 529 706 7 32 -16 85 -41 99 -35 19 -89 13 -116 -11z m-636
-893 c0 -3 -7 -16 -16 -30 -14 -21 -19 -22 -45 -13 -42 14 -94 4 -135 -27 -19
-14 -34 -21 -34 -16 0 20 39 50 77 60 102 27 153 36 153 26z m416 -129 c115
-63 215 -119 223 -124 10 -5 -9 -27 -72 -81 -48 -40 -91 -70 -97 -66 -13 8
-13 44 2 85 9 28 9 35 -7 46 -26 19 -51 2 -67 -46 l-13 -40 -50 32 c-27 17
-60 38 -73 45 l-23 14 22 30 c39 55 -3 90 -51 44 -32 -31 -36 -30 -102 27
l-27 23 51 68 c28 37 56 66 63 63 6 -2 106 -56 221 -120z m-468 4 c42 -26 41
-53 -3 -80 -40 -25 -68 -22 -103 10 -28 26 -28 35 3 65 29 30 59 31 103 5z
m-188 -68 c0 -9 9 -36 20 -59 18 -41 18 -43 1 -64 -14 -17 -24 -20 -44 -15
-23 5 -27 12 -27 44 0 20 8 56 17 79 17 41 33 48 33 15z m350 -59 c50 -41 58
-51 53 -73 -7 -36 16 -54 51 -40 15 5 31 10 36 10 19 0 250 -162 346 -242 123
-103 121 -103 139 -88 33 27 23 41 -112 155 -13 11 -23 22 -23 26 0 3 36 34
80 68 l80 61 35 -57 c237 -381 465 -758 465 -768 0 -16 -72 -127 -123 -190
-22 -27 -85 -96 -140 -152 l-101 -102 -60 52 c-107 92 -247 230 -316 312 -37
44 -94 100 -126 125 -69 51 -151 128 -165 153 -13 22 5 57 30 57 12 0 22 -12
29 -39 13 -41 80 -111 107 -111 9 0 65 -47 126 -104 62 -60 132 -116 161 -130
88 -44 208 -30 208 24 0 24 -27 32 -70 20 -48 -14 -98 2 -159 50 -28 22 -51
43 -51 47 0 4 8 15 17 25 28 31 6 54 -47 50 -43 -4 -45 -2 -131 86 -75 78 -88
96 -98 140 -8 39 -7 62 4 104 12 47 12 56 -3 78 -33 51 -121 136 -242 232 -69
54 -145 115 -169 136 l-45 37 33 9 c17 5 51 26 74 47 23 21 43 38 45 39 1 0
29 -21 62 -47z m-216 -262 c6 -94 2 -151 -13 -151 -3 0 -25 34 -49 74 l-43 75
43 55 c23 30 45 53 49 51 3 -3 9 -49 13 -104z m231 -58 l79 -67 -55 -48 c-30
-26 -62 -48 -72 -48 -9 0 -31 13 -48 30 -42 39 -64 28 -74 -37 -16 -108 -38
-145 -141 -229 -105 -86 -134 -100 -134 -62 0 27 34 84 103 172 26 33 49 74
53 93 6 29 10 33 38 33 57 0 96 63 96 154 0 45 22 76 55 76 13 0 55 -29 100
-67z m-360 -40 c14 -20 16 -40 12 -90 -4 -59 -9 -69 -65 -141 -32 -42 -69 -95
-81 -117 -24 -46 -28 -107 -6 -125 20 -17 19 -35 -4 -51 -11 -8 -207 -173
-436 -368 -229 -194 -418 -351 -420 -350 -2 4 135 184 458 600 45 59 179 233
297 387 118 155 218 281 221 281 4 1 15 -11 24 -26z m521 -160 c-3 -16 -8 -45
-12 -66 -6 -38 -7 -38 -44 -32 -42 7 -56 -4 -62 -50 -2 -19 -11 -34 -28 -42
-13 -6 -26 -11 -27 -9 -2 2 0 26 4 54 8 48 12 53 83 111 41 33 79 60 83 60 5
1 6 -11 3 -26z m-261 -242 c-20 -62 -66 -126 -107 -151 -42 -25 -58 -12 -58
50 l0 47 88 67 c96 73 105 72 77 -13z"/>
</g>
</svg>
